<svg
        xmlns="http://www.w3.org/2000/svg"
        style="width: 100%; height: 100%"
        viewBox="0 0 62 126"
        preserveAspectRatio="none"
        width="100%"
        height="100%"
>
    <svg width="62" height="126" viewBox="0 0 62 126" fill="none" xmlns="http://www.w3.org/2000/svg"
         id="svg-924863889_3327">
        <path d="M61.3957 116.366C48.395 82.0416 47.0344 57.6482 46.9207 54.9876C46.5186 39.3857 52.2209 27.0141 52.2778 26.8921C55.2101 20.5537 58.1181 14.1746 60.9246 7.93388C61.0708 7.60842 61.0383 7.2382 60.8352 6.94529C60.0757 5.85906 57.5333 4.63044 56.7697 4.2765C56.6804 4.23581 56.5788 4.23582 56.4895 4.26836C56.4001 4.30498 56.327 4.37414 56.2864 4.46364C50.442 18.3243 44.7478 30.464 38.1521 44.5199C35.2766 50.6508 32.3158 56.9607 29.0585 64.007C29.026 64.0802 28.9163 64.0354 28.9407 63.9622C37.352 38.9016 42.9364 16.6522 46.4496 1.87621C46.474 1.78264 46.5186 1.50193 46.1653 1.44904C44.8494 1.24156 43.4604 1.06256 42.0389 0.912032C41.8683 0.895759 41.7018 1.0056 41.6611 1.17647C37.7865 17.4455 31.3004 42.1318 22.1134 68.7384C22.089 68.8116 21.9753 68.7831 21.9916 68.7058C27.8116 42.5997 30.8902 17.4821 32.462 0.733028C32.4701 0.635389 32.466 0.375019 32.1736 0.354678H32.1168C30.8049 0.338405 29.4849 0.342473 27.9335 0.379088C27.7588 0.383156 27.6126 0.517409 27.5964 0.696413C26.1383 16.1884 24.1157 31.3997 21.5814 45.9275C21.5692 46.0008 21.4636 45.9967 21.4595 45.9194C20.8219 32.8358 19.4775 17.9052 17.4631 1.51007C17.4509 1.4165 17.3493 1.18054 17.0691 1.20495C15.6476 1.39616 14.2829 1.61584 13.0117 1.86401C12.7965 1.90469 12.6543 2.10811 12.6787 2.32779C13.9458 12.6775 14.9531 22.5431 15.676 31.6723C15.6801 31.7455 15.5826 31.7658 15.5582 31.6967C12.764 23.4828 9.01931 14.4106 4.41363 4.7118C4.32834 4.5328 4.11715 4.4555 3.93438 4.53687C2.66315 5.12677 1.05075 6.03806 0.603996 7.04293C0.486214 7.3033 0.494337 7.61249 0.620242 7.88099C6.87081 21.2371 11.4034 33.2711 14.0921 43.6493C14.0921 43.6493 14.4901 45.2237 14.5266 45.3905C17.6702 58.5433 16.204 71.0613 15.6841 74.5804C12.8777 92.9202 10.8267 97.9405 2.59004 116.24C2.43571 116.561 2.43571 116.801 2.43571 116.801C2.4682 118.087 3.70288 119.352 6.02196 120.633C6.10725 120.678 6.37531 120.719 6.49309 120.515L6.50934 120.483C8.02426 117.448 9.35641 114.783 10.587 112.322C14.685 104.124 17.7149 98.0625 22.881 87.5826C22.9176 87.5135 23.0232 87.5501 22.9988 87.6233C18.0154 103.966 13.5844 122.277 13.426 123.078C13.3894 123.261 13.495 123.436 13.6697 123.489C14.9165 123.859 16.2487 124.193 17.6296 124.482C17.8408 124.527 18.052 124.396 18.1088 124.189C19.1729 120.304 20.2248 116.248 21.2402 112.326C23.9492 101.879 26.7475 91.0976 30.2404 81.5697C30.2688 81.4965 30.3744 81.529 30.3622 81.6063C27.572 97.8021 27.84 112.143 28.0188 121.76C28.0391 122.912 28.0594 123.998 28.0756 125.015C28.0756 125.222 28.2381 125.389 28.4452 125.401C29.7571 125.466 32.5594 125.515 32.5594 125.515H32.5838C32.7463 125.515 32.9331 125.426 32.9331 125.182C32.9331 125.182 32.4417 92.6517 37.5307 70.7115C37.5469 70.6382 37.6566 70.6505 37.6566 70.7277C36.8118 91.8421 40.459 111.386 43.3223 124.392C43.3588 124.571 43.5254 124.685 43.7041 124.661C45.1093 124.478 46.4943 124.258 47.8102 124.006C47.9036 123.99 48.1473 123.884 48.0823 123.591C46.2628 115.332 40.8082 90.5769 42.8877 64.5562C42.8918 64.4789 43.0055 64.4789 43.0136 64.5562C45.8444 86.6795 52.5946 106.96 57.8257 120.214C57.9272 120.454 58.1466 120.495 58.3293 120.385C60.2463 119.25 61.3348 118.046 61.4729 116.907C61.4932 116.732 61.4688 116.557 61.3957 116.366Z"
              fill="#E8F075"></path>
    </svg>
</svg>